<svg width="938" height="1080" viewBox="0 0 938 1080" fill="none" xmlns="http://www.w3.org/2000/svg">
<path d="M445.898 510.768C481.001 510.768 514.088 517.527 545.158 531.046C576.229 544.565 603.386 562.947 626.63 586.19C649.874 609.434 668.255 636.592 681.774 667.662C695.294 698.733 702.054 731.819 702.054 766.922C702.054 797.281 697.073 825.98 687.111 853.019C677.15 880.057 663.393 904.724 645.842 927.019L758.977 1040.15L718.419 1080L605.284 967.576C582.989 985.128 558.322 998.766 531.283 1008.49C504.245 1018.21 475.783 1023.08 445.898 1023.08C410.321 1023.08 376.997 1016.32 345.927 1002.8C314.856 989.279 287.818 971.015 264.812 948.009C241.805 925.002 223.542 897.964 210.022 866.894C196.503 835.823 189.744 802.499 189.744 766.922C189.744 731.819 196.503 698.733 210.022 667.662C223.542 636.592 241.805 609.434 264.812 586.19C287.818 562.947 314.856 544.565 345.927 531.046C376.997 517.527 410.321 510.768 445.898 510.768ZM445.898 567.69C390.398 567.69 343.319 587.14 304.658 626.037C265.998 664.935 246.667 711.896 246.667 766.922C246.667 822.422 265.998 869.503 304.658 908.163C343.318 946.823 390.399 966.153 445.898 966.153C500.924 966.153 547.886 946.823 586.783 908.163C625.681 869.503 645.13 822.422 645.13 766.922C645.13 711.896 625.681 664.935 586.783 626.037C547.886 587.14 500.924 567.69 445.898 567.69ZM445.898 653.075C484.796 653.075 519.543 663.749 550.14 685.095C580.736 706.441 602.912 733.717 616.668 766.922C602.912 800.601 580.736 827.996 550.14 849.104C519.543 870.214 484.796 880.769 445.898 880.769C406.527 880.769 371.543 870.214 340.946 849.104C310.35 827.995 288.411 800.601 275.129 766.922C288.411 733.717 310.35 706.441 340.946 685.095C371.543 663.749 406.527 653.075 445.898 653.075ZM445.898 695.768C419.334 695.768 395.142 702.172 373.321 714.979C351.501 727.787 334.424 745.101 322.091 766.922C334.424 789.217 351.501 806.649 373.321 819.22C395.142 831.79 419.334 838.076 445.898 838.076C471.988 838.076 495.944 831.79 517.765 819.22C539.585 806.649 556.662 789.217 568.995 766.922C556.662 745.101 539.585 727.787 517.765 714.979C495.944 702.172 471.988 695.768 445.898 695.768ZM445.898 724.229C457.757 724.229 467.837 728.38 476.139 736.682C484.44 744.983 488.591 755.063 488.591 766.922C488.591 779.255 484.44 789.453 476.139 797.518C467.837 805.582 457.757 809.614 445.898 809.614C433.565 809.614 423.367 805.582 415.303 797.518C407.239 789.453 403.206 779.255 403.206 766.922C403.206 755.063 407.239 744.983 415.303 736.682C423.367 728.38 433.565 724.23 445.898 724.229ZM819.351 357.166C897.479 384.277 937.56 420.688 937.56 466.12C937.557 541.952 826.144 583.591 699.856 604.428C646.21 522.819 552.769 468.779 446.457 468.779C343.378 468.779 252.399 519.582 198.061 597.06C88.9945 574.348 0.00215882 533.893 0 466.12C3.04437e-05 420.688 40.0802 384.277 118.209 357.166C164.462 384.043 274.862 432.636 468.779 432.636C662.697 432.636 773.058 384.043 819.351 357.166ZM585.975 0C593.202 1.72484e-05 748.211 4.21963 776.611 294.354C738.835 315.411 641.72 357.171 468.779 357.171C295.839 357.171 198.997 315.489 160.986 294.315C189.387 4.21898 344.358 0 351.585 0C354.908 3.795e-05 418.231 0.743538 468.779 50.9014C519.329 0.741942 582.654 0 585.975 0Z" fill="#DFD0B8"/>
</svg>
