<svg width="243" height="241" viewBox="0 0 243 241" fill="none" xmlns="http://www.w3.org/2000/svg">
<path d="M177.467 124.354C180.03 125.327 182.912 124.057 183.772 121.455C189.878 102.977 189.948 83.0306 183.9 64.4472C177.34 44.2921 163.978 26.9521 146.031 15.3058C128.084 3.65943 106.631 -1.59287 85.2352 0.420744C63.839 2.43436 43.7855 11.5928 28.4037 26.3757C13.0218 41.1587 3.23673 60.6771 0.672663 81.6908C-1.89141 102.705 2.91978 123.95 14.3076 141.9C25.6954 159.85 42.9749 173.426 63.2777 180.373C81.9847 186.774 102.222 187.193 121.119 181.643C123.786 180.86 125.149 177.96 124.2 175.347L116.144 153.171C115.207 150.594 112.373 149.273 109.721 149.971C98.1381 153.018 85.8524 152.596 74.4561 148.696C61.4935 144.261 50.4611 135.593 43.1904 124.133C35.9197 112.672 32.8479 99.1079 34.485 85.6913C36.122 72.2747 42.3695 59.8129 52.1903 50.3745C62.011 40.9361 74.8145 35.0888 88.4752 33.8032C102.136 32.5175 115.832 35.871 127.291 43.3067C138.749 50.7425 147.281 61.8135 151.469 74.6818C155.134 85.9436 155.28 97.9892 151.952 109.273C151.165 111.941 152.439 114.857 155.039 115.844L177.467 124.354Z" fill="#43484F"/>
<path d="M59.2337 96.4323C56.8985 96.8017 54.6783 95.2067 54.5626 92.8457C54.3172 87.8406 55.0352 82.8184 56.6928 78.0477C58.8213 71.9217 62.4347 66.3958 67.2188 61.9504C72.0029 57.505 77.813 54.2746 84.1439 52.54C89.0789 51.188 94.2139 50.7767 99.2747 51.3139C101.644 51.5653 103.12 53.893 102.598 56.2153L102.395 57.1183C101.881 59.407 99.6164 60.8208 97.2753 60.6439C93.7268 60.3757 90.1449 60.7169 86.6916 61.663C81.8702 62.984 77.4454 65.4442 73.802 68.8296C70.1585 72.2151 67.4067 76.4235 65.7857 81.0888C64.6359 84.3981 64.0797 87.8662 64.1309 91.3386C64.1657 93.7021 62.6076 95.8987 60.2725 96.268L59.2337 96.4323Z" fill="#808488"/>
<path d="M127.76 141.615C125.483 132.807 133.522 124.789 142.38 127.033L196.585 140.768C205.618 143.057 208.716 154.255 202.133 160.821L161.864 200.985C155.281 207.55 144.018 204.495 141.696 195.513L127.76 141.615Z" fill="#808488"/>
</svg>
